<svg width="24" height="21" viewBox="0 0 24 21" fill="none" xmlns="http://www.w3.org/2000/svg">
<path d="M23.1264 9.69893L19.4548 6.54999V2.29924C19.4548 2.03825 19.2434 1.82683 18.9826 1.82683H16.5234C16.2624 1.82683 16.051 2.03825 16.051 2.29924V3.62811L11.9606 0.1203C11.7814 -0.0401 11.5102 -0.0401 11.331 0.1203L0.1654 9.69905C0.0140308 9.82844 -0.0399257 10.0391 0.0306368 10.2254C0.101199 10.4117 0.281124 10.5338 0.480343 10.5303H3.83703V19.3722C3.83703 19.6332 4.04846 19.8446 4.3092 19.8446H5.95301C6.21376 19.8446 6.42542 19.6332 6.42542 19.3722C6.42542 19.1115 6.21376 18.9001 5.95301 18.9001H4.78164V10.0582C4.78164 9.79744 4.57021 9.58601 4.30922 9.58601H1.74941L11.6463 1.10976L21.5432 9.58601H18.9831C18.7221 9.58601 18.5107 9.79744 18.5107 10.0582V18.9001H17.3361C17.0754 18.9001 16.864 19.1115 16.864 19.3722C16.864 19.6332 17.0754 19.8446 17.3361 19.8446H18.9831C19.2439 19.8446 19.4553 19.6332 19.4553 19.3722V10.5303H22.8215C23.0207 10.5338 23.2006 10.4117 23.2712 10.2254C23.3417 10.0391 23.2878 9.82844 23.1364 9.69905L23.1264 9.69893ZM16.9987 2.77143H18.5102V5.74067L16.9987 4.44355V2.77143ZM16.0542 11.6577H7.23729C6.97655 11.6577 6.76488 11.8691 6.76488 12.1301V20.317C6.76488 20.578 6.97655 20.7894 7.23729 20.7894H16.0542C16.3152 20.7894 16.5266 20.578 16.5266 20.317V12.1301C16.5266 11.8691 16.3152 11.6577 16.0542 11.6577ZM12.3166 12.6022V14.7844L12.2065 14.7182L12.2063 14.7184C12.0197 14.6059 11.7802 14.6359 11.6269 14.7907L11.1987 15.2221L10.9782 14.9701V12.6025L12.3166 12.6022ZM15.5852 19.8447H7.71329V12.6022H10.037V15.1467C10.0361 15.2624 10.0776 15.3745 10.1535 15.4614L10.8241 16.2236C10.9105 16.3217 11.0336 16.3798 11.1642 16.384C11.2907 16.3847 11.412 16.3349 11.5011 16.2455L12.0238 15.7165L12.5309 16.0314C12.6764 16.1186 12.8576 16.1208 13.0053 16.0375C13.153 15.9543 13.2448 15.798 13.2458 15.6284V12.6025H15.5822L15.5852 19.8447Z" fill="#B8C1CC"/>
</svg>
