<svg width="32" height="32" viewBox="0 0 32 32" fill="none" xmlns="http://www.w3.org/2000/svg">
<g clip-path="url(#clip0_20495_216)">
<path d="M0 0H32V32H0V0Z" fill="#0077FF"/>
<path fill-rule="evenodd" clip-rule="evenodd" d="M8.07108 8.62219C7.11108 9.75997 7.11108 11.4666 7.11108 14.9155V17.0666C7.11108 20.4978 7.11108 22.2222 8.07108 23.36C8.23108 23.5733 8.42664 23.7511 8.60442 23.9111C9.75997 24.8711 11.4844 24.8711 14.9155 24.8711H17.0666C20.4978 24.8711 22.2222 24.8711 23.36 23.9111C23.5733 23.7511 23.7511 23.5555 23.9111 23.3778C24.8711 22.2222 24.8711 20.4978 24.8711 17.0666V14.9333C24.8711 11.5022 24.8711 9.77775 23.9111 8.63997C23.7511 8.42664 23.5555 8.24886 23.3778 8.07108C22.2222 7.11108 20.4978 7.11108 17.0666 7.11108H14.9333C11.5022 7.11108 9.77775 7.11108 8.63997 8.05331C8.42664 8.23108 8.24886 8.40886 8.08886 8.62219H8.07108ZM10.1333 13.2978C10.2222 14.5244 10.6311 15.8578 11.2 16.7644C12.2489 18.4889 13.8489 19.3778 16.1778 19.5022L16.5689 19.5378V16.9778L16.8533 17.0133C17.9733 17.1555 19.1111 18.0444 19.5911 19.1822L19.7333 19.5378H20.0889C20.6755 19.5378 21.7778 19.5733 21.7778 19.5378C21.5598 18.7967 21.1958 18.1067 20.7074 17.5083C20.2189 16.9099 19.6157 16.4152 18.9333 16.0533L18.7911 15.9644L19.0222 15.7866C20.1662 15.0633 20.9924 13.9321 21.3333 12.6222V12.4444H19.4666L19.3244 12.8C18.9689 13.6889 18.1333 14.6489 17.4044 15.0044C17.1378 15.1289 16.8711 15.2 16.5689 15.2355V12.4444H14.8444V17.3689L14.5778 17.28C13.8666 17.0133 13.1911 16.3555 12.7822 15.5733C12.4266 14.9155 12.1778 13.8666 12.1066 12.9422L12.0889 12.4444H10.08L10.1511 13.2978H10.1333Z" fill="white"/>
</g>
<defs>
<clipPath id="clip0_20495_216">
<rect width="32" height="32" fill="white"/>
</clipPath>
</defs>
</svg>
